<svg width="40" height="40" viewBox="0 0 40 40" fill="none" xmlns="http://www.w3.org/2000/svg">
<path fill-rule="evenodd" clip-rule="evenodd" d="M24.1285 4.98901C24.1285 4.43031 23.9075 3.8944 23.514 3.49874L20.0232 0L16.5325 3.49874C16.1389 3.8944 15.9179 4.43031 15.9179 4.98901C15.9179 5.54771 16.1389 6.08363 16.5325 6.47929L20.0232 9.97803L23.514 6.47929C23.9075 6.08363 24.1285 5.54771 24.1285 4.98901ZM5.06813 15.0326L10.068 10.0213L13.5588 13.5201C13.9523 13.9157 14.1733 14.4516 14.1733 15.0103C14.1733 15.569 13.9523 16.105 13.5588 16.5006L10.068 19.9994L13.5588 23.4981C13.9535 23.8926 14.4882 24.1141 15.0456 24.1141C15.6031 24.1141 16.1377 23.8926 16.5325 23.4981L20.0016 20.021L16.5325 16.5439C16.1396 16.1479 15.919 15.6121 15.919 15.0537C15.919 14.4952 16.1396 13.9594 16.5325 13.5634L20.0232 10.0646L23.514 13.5634C23.9087 13.9578 24.4434 14.1793 25.0009 14.1793C25.5583 14.1793 26.093 13.9578 26.4877 13.5634L29.9785 10.0646L34.9784 15.0746C37.7361 17.7535 37.7361 22.2453 34.9784 25.0107L29.9785 30.022L26.4877 26.522C26.0948 26.126 25.8743 25.5902 25.8743 25.0317C25.8743 24.4732 26.0948 23.9374 26.4877 23.5414L29.9785 20.0427L26.4877 16.5439C26.093 16.1495 25.5583 15.928 25.0009 15.928C24.4434 15.928 23.9087 16.1495 23.514 16.5439L20.0448 20.021L23.514 23.4981C23.9076 23.8938 24.1286 24.4297 24.1286 24.9884C24.1286 25.5471 23.9076 26.083 23.514 26.4786L20.0233 29.9787L16.5325 26.4786C16.1374 26.0848 15.6028 25.8638 15.0456 25.8638C14.4884 25.8638 13.9539 26.0848 13.5588 26.4786L10.068 29.9787C10.068 29.9787 7.82722 27.7315 5.06813 24.9674C4.41291 24.3175 3.89276 23.5439 3.53777 22.6913C3.18278 21.8386 3 20.9239 3 20C3 19.0761 3.18278 18.1614 3.53777 17.3088C3.89276 16.4561 4.41291 15.6825 5.06813 15.0326ZM15.9178 35.0103C15.9178 35.5692 16.1389 36.1054 16.5325 36.5012L20.0233 40L23.514 36.5012C23.9077 36.1054 24.1287 35.5692 24.1287 35.0103C24.1287 34.4514 23.9077 33.9153 23.514 33.5194L20.0233 30.0206L16.5325 33.5194C16.1389 33.9153 15.9178 34.4514 15.9178 35.0103Z" fill="white"/>
</svg>
