<svg width="158" height="40" viewBox="0 0 158 40" fill="none" xmlns="http://www.w3.org/2000/svg">
<g clip-path="url(#clip0_209_5753)">
<path d="M150.912 29.9669H157.507L146.791 10.0594H139.932L129.222 29.9669H129.935C133.522 29.8882 136.48 28.5658 137.953 26.0549L143.335 16.2671L150.912 29.9669ZM111.891 21.7192L118.06 12.0941C118.984 10.7193 120.356 10.0318 122.175 10.0318H127.662V29.9407H121.493V16.8798L113.263 29.9407H110.514L102.284 16.906V29.9669H96.1167V10.0594H101.604C103.425 10.0594 104.796 10.7464 105.719 12.1203L111.891 21.7192ZM73.8804 12.3066V23.0888C73.8804 24.4623 74.7966 25.1498 76.629 25.1498H83.2178C85.0385 25.1498 85.9665 24.4623 85.9665 23.0888V10.0318H92.1391V24.4413C92.1391 28.1146 90.0815 29.9407 85.9665 29.9407H73.8856C69.7705 29.9407 67.713 28.1172 67.713 24.4413V10.0318C73.8856 10.0318 73.8856 12.3066 73.8856 12.3066H73.8804ZM66.4251 29.9669H48.1664C45.423 29.9669 44.0513 28.5921 44.0513 25.8424V10.0594H50.2239V25.155H61.3021C66.0245 25.155 66.4198 29.9669 66.4198 29.9669" fill="white"/>
<path fill-rule="evenodd" clip-rule="evenodd" d="M21.1283 4.98901C21.1283 4.43031 20.9073 3.8944 20.5138 3.49874L17.023 0L13.5323 3.49874C13.1387 3.8944 12.9177 4.43031 12.9177 4.98901C12.9177 5.54771 13.1387 6.08363 13.5323 6.47929L17.023 9.97803L20.5138 6.47929C20.9073 6.08363 21.1283 5.54771 21.1283 4.98901ZM2.06794 15.0326L7.06782 10.0213L10.5586 13.5201C10.9521 13.9157 11.1731 14.4516 11.1731 15.0103C11.1731 15.569 10.9521 16.105 10.5586 16.5006L7.06782 19.9994L10.5586 23.4981C10.9533 23.8926 11.488 24.1141 12.0454 24.1141C12.6029 24.1141 13.1376 23.8926 13.5323 23.4981L17.0015 20.021L13.5323 16.5439C13.1394 16.1479 12.9188 15.6121 12.9188 15.0537C12.9188 14.4952 13.1394 13.9594 13.5323 13.5634L17.023 10.0646L20.5138 13.5634C20.9086 13.9578 21.4432 14.1793 22.0007 14.1793C22.5581 14.1793 23.0928 13.9578 23.4875 13.5634L26.9783 10.0646L31.9782 15.0746C34.736 17.7535 34.736 22.2453 31.9782 25.0107L26.9783 30.022L23.4875 26.522C23.0946 26.126 22.8741 25.5902 22.8741 25.0317C22.8741 24.4732 23.0946 23.9374 23.4875 23.5414L26.9783 20.0427L23.4875 16.5439C23.0928 16.1495 22.5581 15.928 22.0007 15.928C21.4432 15.928 20.9086 16.1495 20.5138 16.5439L17.0447 20.021L20.5138 23.4981C20.9074 23.8938 21.1284 24.4297 21.1284 24.9884C21.1284 25.5471 20.9074 26.083 20.5138 26.4786L17.0231 29.9787L13.5323 26.4786C13.1372 26.0848 12.6027 25.8638 12.0454 25.8638C11.4882 25.8638 10.9537 26.0848 10.5586 26.4786L7.06782 29.9787C7.06782 29.9787 4.82704 27.7315 2.06794 24.9674C1.41273 24.3175 0.892577 23.5439 0.537588 22.6913C0.182599 21.8386 -0.000183105 20.9239 -0.000183105 20C-0.000183105 19.0761 0.182599 18.1614 0.537588 17.3088C0.892577 16.4561 1.41273 15.6825 2.06794 15.0326ZM12.9177 35.0103C12.9177 35.5692 13.1387 36.1054 13.5323 36.5012L17.0231 40L20.5138 36.5012C20.9075 36.1054 21.1285 35.5692 21.1285 35.0103C21.1285 34.4514 20.9075 33.9153 20.5138 33.5194L17.0231 30.0206L13.5323 33.5194C13.1387 33.9153 12.9177 34.4514 12.9177 35.0103Z" fill="white"/>
</g>
<defs>
<clipPath id="clip0_209_5753">
<rect width="157.5" height="40" fill="white"/>
</clipPath>
</defs>
</svg>
