<svg width="69" height="80" viewBox="0 0 69 80" xmlns="http://www.w3.org/2000/svg">
    <path d="m34.55 60.043 7.08 6.998a4.189 4.189 0 0 1 0 5.961L34.55 80l-7.081-6.998a4.189 4.189 0 0 1 0-5.961l7.08-6.998zm-20.28-40 7.08 6.998a4.189 4.189 0 0 1 0 5.961L14.27 40l7.08 6.998c1.66 1.641 4.37 1.641 6.031 0l7.036-6.956-7.036-6.953a4.189 4.189 0 0 1 0-5.962l7.08-6.997 7.081 6.997c1.66 1.642 4.37 1.642 6.031 0l7.08-6.997.016.014.018.019.06.058c.671.665 4.918 4.862 10.046 9.93 5.595 5.357 5.595 14.341.088 19.87L54.654 60.044l-7.08-6.998a4.189 4.189 0 0 1 0-5.96l7.08-6.999-7.08-6.997c-1.661-1.642-4.371-1.642-6.032 0l-7.037 6.954 7.037 6.955a4.189 4.189 0 0 1 0 5.961l-7.08 6.998-7.08-6.998c-1.661-1.642-4.371-1.642-6.032 0l-7.08 6.998-.06-.06-10.08-9.962c-5.507-5.443-5.507-14.427 0-19.87l10.14-10.022zM41.542 6.998a4.189 4.189 0 0 1 0 5.961l-7.08 6.998-7.08-6.998a4.189 4.189 0 0 1 0-5.961L34.461 0l7.08 6.998z" fill="#00263E" fill-rule="nonzero"/>
</svg>
