<svg width="189" height="48" viewBox="0 0 189 48" xmlns="http://www.w3.org/2000/svg">
    <g fill="#00263E" fill-rule="evenodd">
        <path d="M181.086 35.961H189l-12.851-23.89h-8.23l-12.852 23.89h.854c4.305-.095 7.85-1.681 9.623-4.695l6.458-11.74 9.084 16.435zm-46.816-9.898 7.407-11.55c1.107-1.65 2.754-2.474 4.938-2.474h6.584v23.89h-7.407V20.257l-9.876 15.674h-3.292l-9.877-15.642v15.673h-7.407v-23.89h6.584c2.184 0 3.83.824 4.938 2.474l7.408 11.518zM88.656 14.768v12.944c0 1.65 1.108 2.475 3.292 2.475h7.913c2.184 0 3.292-.825 3.292-2.475V12.04h7.408V29.33c0 4.41-2.47 6.6-7.408 6.6H88.656c-4.938 0-7.407-2.19-7.407-6.6V12.04c7.407 0 7.407 2.729 7.407 2.729zM79.697 35.96H57.793c-3.293 0-4.939-1.65-4.939-4.95v-18.94h7.408v18.116h13.294c5.667 0 6.141 5.774 6.141 5.774zM20.428 36.026l4.19 4.198a2.539 2.539 0 0 1 0 3.577L20.427 48l-4.189-4.199a2.538 2.538 0 0 1 0-3.577l4.189-4.198zm-11.947-24 4.19 4.199a2.538 2.538 0 0 1 0 3.576L8.48 24l4.19 4.198a2.523 2.523 0 0 0 3.568 0l4.163-4.172-4.163-4.173a2.538 2.538 0 0 1 0-3.577l4.19-4.198 4.188 4.198a2.525 2.525 0 0 0 3.569 0l4.189-4.198.065.065.406.408.087.086.297.298.112.112.505.507.286.286.306.307.16.161.336.336c.229.23.47.47.72.723l.385.385.81.81.638.64.886.889c3.31 3.213 3.31 8.604 0 11.922l-6 6.013-4.188-4.199a2.539 2.539 0 0 1 0-3.577l4.189-4.198-4.19-4.2a2.525 2.525 0 0 0-3.568 0l-4.163 4.174 4.163 4.172a2.539 2.539 0 0 1 0 3.577l-4.189 4.199-4.19-4.199a2.524 2.524 0 0 0-3.567 0l-4.19 4.199-.065-.065-.254-.256-.239-.238-.297-.299-.112-.112-.505-.506-.286-.286-.306-.307-.16-.161-.335-.336-.175-.174-.36-.362-.187-.187-.384-.385-1.02-1.022-.428-.43-.886-.887c-3.31-3.266-3.31-8.657 0-11.922l6-6.013zm16.136-7.827a2.539 2.539 0 0 1 0 3.576l-4.189 4.199-4.19-4.199a2.539 2.539 0 0 1 0-3.576l4.19-4.2 4.189 4.2z"/>
    </g>
</svg>
